<?xml version="1.0" standalone="no"?>
<!DOCTYPE svg PUBLIC "-//W3C//DTD SVG 20010904//EN"
 "http://www.w3.org/TR/2001/REC-SVG-20010904/DTD/svg10.dtd">
<svg version="1.0" xmlns="http://www.w3.org/2000/svg"
 width="366.000000pt" height="366.000000pt" viewBox="0 0 366.000000 366.000000"
 preserveAspectRatio="xMidYMid meet">
<metadata>
Created by potrace 1.11, written by Peter Selinger 2001-2013
</metadata>
<g transform="translate(0.000000,366.000000) scale(0.100000,-0.100000)"
fill="#000000" stroke="none">
<path d="M1615 3555 c-38 -8 -79 -12 -90 -9 -15 4 -16 3 -6 -4 9 -7 -2 -10
-36 -10 -27 0 -71 -9 -98 -20 -28 -11 -84 -32 -125 -47 -106 -38 -118 -45
-113 -64 3 -13 -11 -24 -57 -44 l-62 -26 16 24 c15 23 15 24 -1 18 -83 -29
-371 -244 -454 -338 -158 -180 -305 -401 -331 -499 -7 -25 -16 -46 -20 -46
-10 0 -62 -168 -86 -280 -43 -197 -51 -370 -27 -557 19 -140 24 -165 36 -158
12 8 22 -39 17 -77 -3 -18 1 -46 7 -63 7 -16 16 -46 19 -65 8 -50 39 -128 77
-191 17 -30 35 -63 40 -74 10 -23 101 -173 140 -231 73 -108 281 -314 324
-320 18 -3 65 -35 65 -45 0 -18 251 -169 282 -169 7 0 26 -7 41 -15 16 -8 74
-26 130 -41 56 -14 109 -28 117 -31 15 -6 27 -8 63 -11 10 -1 16 -6 13 -11
-14 -22 133 -36 354 -35 249 2 351 17 520 76 106 37 298 135 368 188 28 22 52
37 52 33 0 -3 8 1 18 10 9 9 36 29 58 44 48 34 200 193 282 297 176 221 317
525 367 789 8 45 20 105 26 133 5 28 7 70 3 94 -6 39 -8 41 -21 25 -12 -18
-13 -17 -13 6 0 13 5 42 11 64 6 22 11 52 12 67 1 36 9 27 23 -25 10 -38 11
-34 7 43 -3 77 -19 165 -42 245 -5 17 -12 45 -16 63 -4 17 -11 32 -16 32 -6 0
-7 5 -3 12 4 7 3 8 -4 4 -11 -7 -6 -31 11 -54 5 -7 7 -15 4 -18 -3 -3 -2 -17
4 -31 10 -26 2 -73 -12 -73 -5 0 -9 7 -9 16 0 8 -7 36 -15 62 -54 175 -72 241
-63 236 6 -4 18 -25 28 -47 16 -36 19 -38 22 -16 7 39 -93 228 -214 407 -16
24 -24 41 -18 37 7 -4 5 6 -4 23 -8 16 -12 33 -8 37 4 3 0 5 -8 3 -9 -2 -15 4
-15 14 0 10 -11 25 -25 34 -46 31 -99 87 -93 98 3 6 3 8 -2 4 -8 -7 -44 33
-36 40 8 9 -53 60 -65 55 -9 -3 -12 0 -9 10 9 23 -148 145 -218 169 -17 7 -50
24 -71 40 -21 15 -48 28 -60 28 -12 1 -34 7 -51 15 -26 13 -27 14 -5 10 l25
-5 -25 11 c-95 43 -147 61 -215 74 -42 8 -82 19 -89 24 -46 37 -498 63 -631
36z m-315 -100 c-26 -15 -80 -42 -96 -47 -5 -2 -11 1 -14 6 -3 6 20 20 50 32
62 26 98 31 60 9z m1243 -97 c37 -19 9 -18 -34 1 -34 16 -37 19 -14 14 17 -3
38 -10 48 -15z m-433 -24 c335 -58 679 -254 892 -511 245 -294 368 -632 368
-1006 0 -132 -41 -398 -65 -427 -7 -8 -16 -26 -20 -40 -13 -42 -87 -214 -99
-230 -7 -8 -29 -44 -51 -80 -21 -36 -51 -81 -67 -100 -15 -19 -28 -39 -28 -45
0 -6 -26 -33 -58 -60 -32 -28 -70 -66 -84 -86 -14 -20 -48 -51 -76 -68 -27
-18 -55 -44 -61 -57 -6 -13 -14 -25 -18 -25 -5 -1 -18 -3 -29 -4 -12 -1 -39
-16 -60 -32 -47 -36 -114 -77 -114 -69 0 3 -15 -3 -32 -14 -63 -38 -189 -88
-243 -97 -16 -3 -34 -9 -40 -13 -5 -4 -32 -13 -60 -20 -27 -7 -54 -17 -60 -21
-14 -14 -57 -11 -49 3 5 8 0 9 -17 4 -13 -5 -95 -10 -182 -13 -142 -4 -170 -2
-289 22 -225 45 -376 105 -553 219 -44 29 -88 55 -98 59 -9 4 -20 14 -24 24
-9 24 -45 63 -57 63 -15 0 -152 135 -205 202 -25 31 -60 85 -79 120 -19 34
-42 74 -52 88 -31 46 -155 384 -148 407 1 4 -4 36 -11 71 -16 75 -10 462 9
527 7 22 21 72 32 110 51 183 143 376 233 490 17 22 36 47 41 56 15 27 116
140 167 188 173 163 440 299 697 355 177 39 404 43 590 10z m618 -71 c18 -14
31 -27 29 -30 -8 -7 -87 46 -87 58 0 12 11 6 58 -28z m277 -153 c10 -11 16
-20 13 -20 -3 0 -13 9 -23 20 -10 11 -16 20 -13 20 3 0 13 -9 23 -20z m101
-142 l29 -33 -32 29 c-31 28 -38 36 -30 36 2 0 16 -15 33 -32z m65 -75 c18
-20 25 -31 15 -23 -18 14 -19 13 -13 -2 10 -29 1 -21 -22 18 -34 57 -29 59 20
7z m368 -848 c1 -17 -1 -17 -9 -5 -5 8 -9 26 -9 40 0 23 1 23 9 5 5 -11 9 -29
9 -40z m-42 13 c-3 -7 -5 -2 -5 12 0 14 2 19 5 13 2 -7 2 -19 0 -25z m-30
-120 c-3 -8 -6 -5 -6 6 -1 11 2 17 5 13 3 -3 4 -12 1 -19z m23 -71 c0 -16 -18
3 -23 25 -6 22 -5 22 8 4 8 -11 15 -24 15 -29z"/>
<path d="M1656 3169 c-50 -39 -23 -131 37 -131 65 0 91 79 42 127 -29 30 -45
31 -79 4z m73 -30 c30 -54 -17 -112 -60 -73 -23 21 -25 67 -3 89 22 21 45 16
63 -16z"/>
<path d="M1848 3120 c-2 -51 0 -70 10 -70 7 0 12 13 12 30 0 25 4 30 25 30 14
0 25 5 25 10 0 6 -11 10 -25 10 -20 0 -25 5 -25 23 0 20 4 23 30 19 18 -3 30
0 30 7 0 6 -17 11 -39 11 l-39 0 -4 -70z"/>
<path d="M2021 3144 c-40 -51 -14 -124 44 -124 59 0 90 85 48 133 -24 26 -68
22 -92 -9z m85 -20 c4 -15 3 -39 -2 -53 -7 -20 -16 -26 -39 -26 -40 0 -56 41
-31 79 23 36 63 35 72 0z"/>
<path d="M1468 3143 c-22 -6 -22 -22 -1 -90 18 -56 39 -74 28 -23 -6 25 -4 30
13 30 11 0 26 -10 35 -22 8 -13 18 -20 22 -16 4 4 -1 20 -11 35 -10 15 -17 36
-15 46 5 36 -23 53 -71 40z m52 -33 c0 -25 -29 -38 -41 -19 -15 25 -10 39 16
39 18 0 25 -5 25 -20z"/>
<path d="M2230 3088 c-20 -22 -27 -73 -12 -94 15 -23 50 -34 77 -24 49 19 63
106 22 132 -23 15 -66 8 -87 -14z m71 2 c38 -21 10 -110 -34 -110 -39 0 -50
67 -17 100 23 23 25 23 51 10z"/>
<path d="M1314 3083 l-32 -16 29 -61 c16 -33 34 -63 41 -65 7 -2 9 3 3 15 -17
43 -17 52 4 59 12 3 21 11 21 16 0 12 -7 11 -30 -1 -15 -8 -21 -6 -30 10 -9
17 -7 22 15 32 14 6 25 15 25 20 0 11 -10 9 -46 -9z"/>
<path d="M2408 2970 l-37 -60 22 -14 c47 -31 74 -30 107 2 16 17 30 40 30 52
0 23 -53 80 -74 80 -6 -1 -28 -28 -48 -60z m102 -15 c0 -21 -40 -65 -59 -65
-9 0 -25 6 -34 13 -16 11 -15 16 13 61 l31 48 25 -23 c13 -12 24 -28 24 -34z"/>
<path d="M1149 2985 c-9 -9 33 -155 43 -149 5 3 7 17 6 31 -4 34 24 53 52 35
23 -14 30 -15 30 -4 0 8 -92 80 -113 88 -7 2 -15 2 -18 -1z m61 -57 c0 -8 -20
-22 -24 -17 -2 2 -7 14 -11 27 -6 22 -5 22 14 10 12 -7 21 -16 21 -20z"/>
<path d="M774 2782 c-124 -115 -187 -206 -279 -398 -60 -125 -76 -196 -106
-478 -28 -262 50 -557 212 -802 57 -85 96 -135 116 -147 7 -4 -5 18 -27 50
-21 32 -37 61 -34 64 2 4 -3 9 -11 13 -8 3 -15 15 -15 26 0 12 -4 18 -10 15
-6 -3 -7 1 -4 10 4 9 -3 24 -17 38 -13 12 -24 27 -25 32 -1 24 -17 65 -25 65
-5 0 -9 8 -9 19 0 10 -7 24 -15 31 -8 7 -13 15 -11 19 3 4 -3 25 -13 46 -15
34 -45 144 -67 250 -23 107 -2 509 31 580 7 17 17 44 21 60 4 17 20 59 36 94
26 58 44 91 134 239 17 29 66 89 108 133 63 67 88 101 74 99 -2 -1 -31 -26
-64 -58z"/>
<path d="M2871 2784 c13 -14 33 -36 44 -48 11 -11 19 -24 18 -28 -2 -5 2 -8 7
-8 6 0 15 -12 20 -26 6 -14 14 -22 20 -19 6 3 7 0 4 -9 -3 -9 4 -25 18 -38 13
-13 30 -36 38 -53 8 -16 17 -32 20 -35 12 -12 46 -69 73 -123 97 -199 136
-378 135 -637 -1 -91 -4 -169 -8 -175 -4 -5 -11 -32 -15 -60 -15 -103 -126
-374 -185 -450 -113 -145 -147 -208 -62 -115 118 130 224 333 272 521 43 164
42 478 0 658 -32 134 -123 343 -182 416 -4 6 -37 46 -71 90 -71 89 -144 165
-159 165 -6 0 0 -12 13 -26z"/>
<path d="M1106 2655 c-81 -82 -166 -196 -166 -224 0 -5 -6 -14 -14 -20 -19
-16 -82 -166 -101 -241 -8 -32 -17 -82 -20 -111 -3 -30 -8 -59 -10 -66 -12
-37 -16 -239 -6 -316 27 -201 117 -412 247 -577 46 -58 65 -66 29 -12 -14 20
-33 54 -42 75 -10 20 -21 37 -25 37 -4 0 -5 7 -2 15 4 8 2 15 -4 15 -5 0 -17
17 -27 37 -9 21 -28 59 -41 86 -14 26 -23 47 -19 47 3 0 -3 17 -13 38 -20 38
-56 182 -67 263 -3 26 -6 84 -6 129 0 93 30 350 42 350 4 0 10 17 14 38 7 38
59 146 129 268 22 37 77 107 123 155 72 76 96 109 79 109 -3 0 -48 -43 -100
-95z"/>
<path d="M2475 2688 c15 -18 34 -37 41 -41 8 -5 12 -12 9 -18 -4 -5 -2 -9 4
-9 6 0 17 -15 26 -34 9 -18 27 -39 40 -46 13 -7 22 -17 19 -22 -3 -5 6 -24 20
-43 14 -18 26 -38 26 -44 0 -6 4 -11 9 -11 22 0 134 -271 146 -356 4 -22 10
-53 14 -69 5 -17 9 -103 10 -190 2 -205 -16 -297 -88 -460 -57 -127 -85 -178
-110 -207 -40 -47 -91 -119 -91 -130 0 -16 102 101 148 169 49 73 123 238 146
328 23 89 32 203 30 351 -3 141 -21 250 -60 358 -28 80 -103 228 -136 269
-110 139 -201 237 -221 237 -5 0 3 -15 18 -32z"/>
<path d="M1115 2596 c-17 -25 -16 -28 17 -98 43 -90 112 -177 304 -383 82 -89
176 -191 210 -228 34 -37 73 -73 88 -80 l26 -14 -92 -85 c-136 -124 -273 -237
-424 -350 -74 -54 -140 -109 -149 -121 -42 -60 12 -147 91 -147 43 0 75 27
149 123 163 211 462 554 492 565 27 8 235 -213 464 -493 68 -82 130 -155 138
-162 28 -22 89 -16 116 11 57 57 39 108 -68 193 -212 167 -365 307 -498 455
l-70 77 46 43 c60 56 115 85 173 93 77 10 98 24 182 112 95 100 297 366 282
371 -10 3 -33 -20 -227 -233 -115 -125 -135 -145 -135 -130 0 4 74 96 165 205
91 109 165 202 165 207 -1 4 -84 -77 -185 -182 -101 -104 -184 -185 -184 -180
0 6 74 96 164 200 91 105 165 194 165 200 0 5 -85 -75 -188 -178 -103 -103
-191 -185 -194 -181 -4 3 68 87 160 186 166 179 190 208 175 208 -11 0 -146
-121 -290 -261 -117 -113 -142 -149 -163 -237 -10 -43 -24 -65 -79 -124 l-67
-71 -358 354 c-196 195 -364 355 -371 357 -8 2 -21 -8 -30 -22z m1110 -526 c8
-13 -54 -50 -85 -50 -24 0 -24 1 6 19 18 11 35 24 38 30 9 14 33 14 41 1z
m-985 -945 c-7 -8 -17 -15 -23 -15 -6 0 -2 7 9 15 25 19 30 19 14 0z"/>
<path d="M2926 1314 c-8 -22 -9 -20 25 -34 26 -11 32 -11 40 1 14 22 10 36 -5
17 -15 -21 -27 -14 -19 10 5 14 3 15 -8 5 -18 -18 -30 -16 -23 2 4 8 4 15 1
15 -3 0 -8 -7 -11 -16z"/>
<path d="M700 1297 c-14 -6 -26 -12 -28 -13 -6 -3 11 -34 19 -34 4 0 6 7 3 15
-4 8 -2 15 3 15 5 0 18 7 29 15 22 17 9 18 -26 2z"/>
<path d="M2886 1244 c-3 -9 -6 -17 -6 -19 0 -7 61 -27 67 -21 3 3 1 6 -5 6 -7
0 -12 5 -12 10 0 6 8 10 18 10 11 0 8 5 -12 15 -36 19 -42 19 -50 -1z m34 -4
c0 -5 -4 -10 -10 -10 -5 0 -10 5 -10 10 0 6 5 10 10 10 6 0 10 -4 10 -10z"/>
<path d="M720 1235 c-14 -8 -19 -14 -10 -14 8 0 26 6 40 14 14 8 19 14 10 14
-8 0 -26 -6 -40 -14z"/>
<path d="M1580 1205 c0 -30 3 -35 23 -34 16 1 18 2 5 6 -21 5 -23 19 -5 26 10
4 10 6 0 6 -19 1 -16 19 5 24 13 4 11 5 -5 6 -20 1 -23 -4 -23 -34z"/>
<path d="M1647 1232 c6 -4 13 -21 16 -37 l4 -30 2 32 c0 17 7 34 14 36 6 3 -1
6 -18 6 -16 0 -25 -3 -18 -7z"/>
<path d="M1724 1228 c-4 -6 0 -16 9 -23 22 -16 21 -22 0 -28 -16 -4 -16 -5 -1
-6 24 -2 34 20 15 34 -22 16 -21 22 1 28 15 4 15 5 0 6 -9 0 -20 -4 -24 -11z"/>
<path d="M1843 1233 c21 -6 21 -12 1 -41 -14 -21 -14 -22 8 -21 13 0 17 3 11
6 -10 3 -10 10 -2 24 12 23 4 39 -19 38 -15 -1 -15 -2 1 -6z"/>
<path d="M1904 1226 c-9 -23 0 -51 16 -51 10 0 15 10 15 29 0 32 -21 47 -31
22z m26 -21 c0 -14 -4 -25 -10 -25 -5 0 -10 11 -10 25 0 14 5 25 10 25 6 0 10
-11 10 -25z"/>
<path d="M1988 1205 c2 -19 6 -35 8 -35 2 0 4 16 4 35 0 19 -4 35 -8 35 -4 0
-6 -16 -4 -35z"/>
<path d="M2049 1238 c-9 -21 -5 -60 7 -65 24 -9 36 10 25 40 -9 22 -27 36 -32
25z m21 -18 c0 -5 -4 -10 -10 -10 -5 0 -10 5 -10 10 0 6 5 10 10 10 6 0 10 -4
10 -10z m10 -30 c0 -5 -7 -10 -15 -10 -8 0 -15 5 -15 10 0 6 7 10 15 10 8 0
15 -4 15 -10z"/>
<path d="M750 1195 c-30 -32 -21 -40 27 -27 35 9 36 10 9 11 -28 1 -29 1 -11
21 26 29 3 25 -25 -5z"/>
<path d="M2870 1191 c0 -5 10 -15 23 -24 29 -19 15 -34 -19 -18 -15 6 -29 10
-31 7 -8 -8 57 -37 67 -31 18 11 10 43 -15 59 -14 9 -25 12 -25 7z"/>
<path d="M785 1129 c-25 -18 -27 -20 -7 -16 24 6 28 -3 10 -21 -19 -19 4 -14
31 7 16 12 22 24 18 35 -8 21 -16 20 -52 -5z m45 -3 c0 -3 -4 -8 -10 -11 -5
-3 -10 -1 -10 4 0 6 5 11 10 11 6 0 10 -2 10 -4z"/>
<path d="M2816 1111 c-6 -10 -2 -20 14 -33 27 -22 34 -22 50 -3 9 10 9 15 1
15 -6 0 -11 -5 -11 -11 0 -5 -5 -7 -11 -4 -6 4 -8 14 -4 22 4 13 3 14 -9 4
-11 -10 -15 -9 -18 6 -3 15 -5 15 -12 4z"/>
<path d="M835 1065 l-30 -15 27 3 c23 4 26 2 18 -14 -18 -32 -10 -34 15 -4 39
48 28 58 -30 30z"/>
<path d="M2780 1071 c0 -10 50 -45 56 -39 2 3 -10 14 -26 27 -17 12 -30 17
-30 12z"/>
<path d="M2740 1025 c-10 -12 -8 -18 11 -35 29 -24 46 -26 28 -3 -13 15 -12
16 9 11 12 -4 22 -2 22 3 0 5 -6 9 -14 9 -8 0 -16 7 -20 15 -7 19 -20 19 -36
0z m30 -15 c0 -5 -4 -10 -10 -10 -5 0 -10 5 -10 10 0 6 5 10 10 10 6 0 10 -4
10 -10z"/>
<path d="M889 1004 c-23 -25 -23 -26 -2 -15 23 12 38 29 31 37 -3 2 -15 -8
-29 -22z"/>
<path d="M933 979 c-6 -6 -9 -18 -6 -26 5 -12 1 -14 -18 -8 -23 7 -23 6 -7
-10 19 -20 38 -12 38 17 0 15 4 18 16 14 14 -5 15 -4 4 9 -15 18 -13 18 -27 4z"/>
<path d="M2697 970 c-6 -23 36 -65 57 -57 9 4 16 12 16 18 0 8 -4 9 -13 0 -19
-15 -30 -1 -14 17 10 13 8 14 -13 7 -22 -7 -23 -6 -12 7 10 13 10 17 -2 21 -8
3 -16 -2 -19 -13z"/>
<path d="M957 922 c-22 -24 -21 -39 3 -52 23 -12 35 -7 50 20 7 14 6 23 -6 34
-20 20 -27 20 -47 -2z m43 -17 c0 -16 -27 -32 -37 -22 -3 4 -3 13 0 22 8 20
37 20 37 0z"/>
<path d="M2651 921 c-14 -9 -4 -38 22 -59 12 -10 14 -6 13 25 -1 38 -12 49
-35 34z m23 -22 c-3 -5 -10 -7 -15 -3 -5 3 -7 10 -3 15 3 5 10 7 15 3 5 -3 7
-10 3 -15z"/>
<path d="M1032 867 c-25 -26 -30 -46 -7 -27 13 11 15 8 15 -15 0 -24 2 -26 16
-15 8 8 20 23 26 34 11 20 10 20 -9 4 -19 -17 -19 -17 -15 12 5 36 2 37 -26 7z"/>
<path d="M2613 862 c10 -10 17 -24 17 -30 0 -17 -27 -15 -34 3 -3 8 -11 15
-18 15 -7 0 0 -12 15 -27 25 -25 28 -26 43 -11 15 14 15 18 -1 42 -10 14 -22
26 -28 26 -5 0 -3 -8 6 -18z"/>
<path d="M2537 823 c-16 -15 -6 -33 18 -33 14 0 25 -4 25 -10 0 -5 -4 -10 -10
-10 -5 0 -10 -5 -10 -11 0 -8 5 -8 15 1 24 20 18 40 -11 40 -22 0 -25 2 -14
15 12 14 0 22 -13 8z"/>
<path d="M1123 774 c-16 -25 -16 -27 1 -40 37 -26 76 22 44 54 -18 18 -26 15
-45 -14z m44 -18 c-4 -9 -16 -16 -27 -16 -21 0 -20 8 3 38 13 17 32 -1 24 -22z"/>
<path d="M2436 764 c-3 -8 3 -28 13 -44 16 -28 19 -29 37 -14 16 13 16 15 2
10 -10 -3 -20 -1 -23 4 -4 6 -1 10 4 10 6 0 11 4 11 10 0 5 -7 7 -15 4 -8 -4
-15 -2 -15 4 0 6 5 12 12 14 8 3 6 7 -4 11 -10 3 -19 0 -22 -9z"/>
<path d="M1217 753 c-4 -3 -7 -11 -7 -17 0 -6 5 -5 12 2 6 6 9 14 7 17 -3 3
-9 2 -12 -2z"/>
<path d="M1240 715 c-20 -21 -21 -25 -7 -25 9 0 17 -7 17 -15 0 -31 18 -14 22
21 5 45 -3 50 -32 19z"/>
<path d="M2383 723 c-7 -2 -13 -9 -13 -14 0 -6 4 -7 10 -4 5 3 15 -5 22 -19 6
-14 15 -26 20 -26 5 0 2 13 -6 29 -9 16 -12 31 -9 35 7 7 -6 7 -24 -1z"/>
<path d="M1300 681 c-11 -28 -11 -34 1 -42 8 -5 19 -9 24 -9 6 1 2 5 -8 11
-14 8 -15 14 -6 30 5 11 9 25 7 31 -2 6 -10 -3 -18 -21z"/>
<path d="M2330 690 c1 -8 8 -26 16 -40 l15 -25 -6 30 c-7 33 -25 59 -25 35z"/>
<path d="M1371 657 c-16 -41 -13 -57 5 -24 8 16 13 34 11 40 -3 7 -10 -1 -16
-16z"/>
<path d="M2270 668 c0 -6 18 -52 26 -66 3 -6 34 11 34 19 0 4 -7 6 -15 3 -8
-4 -15 -2 -15 3 0 11 -29 51 -30 41z"/>
<path d="M1410 641 c-13 -26 -14 -52 0 -31 8 13 10 12 10 -2 0 -21 11 -23 29
-5 11 10 13 9 8 -5 -4 -10 -3 -18 2 -18 9 0 21 34 21 59 0 11 -5 10 -20 -4
-19 -18 -20 -17 -20 3 0 27 -16 28 -30 3z"/>
<path d="M2210 618 c1 -35 3 -40 11 -25 7 12 17 16 32 11 20 -6 20 -5 -4 24
-13 17 -27 31 -31 31 -5 1 -8 -18 -8 -41z"/>
<path d="M1506 614 c-13 -34 -7 -54 17 -53 16 1 18 2 5 6 -10 2 -18 9 -18 14
0 5 8 9 18 10 10 0 12 3 5 6 -18 7 -16 21 5 26 13 4 12 5 -4 6 -12 0 -25 -6
-28 -15z"/>
<path d="M2165 601 c5 -24 3 -31 -9 -31 -9 0 -16 8 -16 19 0 11 -5 23 -11 27
-9 5 -10 -1 -5 -22 8 -32 23 -45 43 -37 16 6 18 59 2 69 -8 4 -9 -3 -4 -25z"/>
<path d="M1576 604 c-3 -9 -6 -25 -5 -37 0 -21 1 -21 8 -2 8 19 8 19 21 -4 9
-19 14 -21 21 -10 5 8 8 25 8 39 -1 17 -3 19 -6 8 -5 -22 -23 -24 -23 -4 0 22
-17 28 -24 10z"/>
<path d="M2040 601 c-5 -11 -10 -22 -10 -25 0 -13 34 -36 54 -36 20 0 22 4 18
28 -9 52 -42 69 -62 33z m50 -27 c0 -8 -9 -14 -20 -14 -19 0 -28 28 -13 43 9
9 33 -12 33 -29z"/>
<path d="M1669 558 l4 -43 10 33 c6 17 14 32 18 32 5 0 9 5 9 10 0 6 -10 10
-23 10 -21 0 -22 -4 -18 -42z"/>
<path d="M1733 575 c-3 -9 2 -22 13 -30 18 -14 18 -14 -6 -15 -19 0 -21 -3
-11 -9 8 -5 20 -7 28 -4 18 7 17 32 -2 39 -20 8 -19 21 3 27 16 4 16 5 -1 6
-10 0 -20 -6 -24 -14z"/>
<path d="M1830 555 c0 -30 3 -35 25 -35 13 0 28 8 34 17 13 25 -5 53 -34 53
-22 0 -25 -4 -25 -35z m45 0 c0 -10 -6 -20 -12 -22 -8 -3 -13 5 -13 22 0 17 5
25 13 23 6 -3 12 -13 12 -23z"/>
<path d="M1922 558 c2 -27 8 -33 28 -35 14 -1 18 0 8 3 -19 6 -25 24 -8 24 6
0 10 5 10 11 0 5 -4 8 -9 4 -5 -3 -12 -1 -15 4 -4 5 2 12 11 14 13 3 12 5 -5
6 -20 1 -23 -3 -20 -31z"/>
<path d="M3270 2776 c0 -2 8 -10 18 -17 15 -13 16 -12 3 4 -13 16 -21 21 -21
13z"/>
</g>
</svg>
